M48
;DRILL file {KiCad 4.0.4+e1-6308~48~ubuntu14.04.1-stable} date Mon Oct 17 01:34:52 2016
;FORMAT={-:-/ absolute / metric / decimal}
FMAT,2
METRIC,TZ
T1C0.400
T2C0.800
T3C1.001
T4C1.143
T5C1.199
T6C1.270
T7C1.524
%
G90
G05
M71
T1
X104.394Y-97.509
X105.156Y-157.961
X113.023Y-93.105
X113.785Y-153.557
X116.127Y-94.16
X116.889Y-154.612
T2
X162.56Y-94.909
X162.56Y-97.409
X163.322Y-155.361
X163.322Y-157.861
X180.594Y-101.473
X181.356Y-161.925
X183.094Y-101.473
X183.856Y-161.925
T3
X118.491Y-94.358
X119.253Y-154.81
X153.162Y-90.421
X153.924Y-150.873
T4
X136.144Y-81.534
X136.144Y-84.074
X136.144Y-86.614
X136.906Y-141.986
X136.906Y-144.526
X136.906Y-147.066
X171.45Y-92.456
X171.45Y-94.996
X171.45Y-97.536
X172.212Y-152.908
X172.212Y-155.448
X172.212Y-157.988
T5
X94.996Y-80.772
X94.996Y-83.312
X94.996Y-85.852
X95.758Y-141.224
X95.758Y-143.764
X95.758Y-146.304
X107.696Y-81.153
X107.696Y-83.693
X107.696Y-86.233
X108.458Y-141.605
X108.458Y-144.145
X108.458Y-146.685
X117.856Y-81.661
X117.856Y-84.201
X117.856Y-86.741
X118.618Y-142.113
X118.618Y-144.653
X118.618Y-147.193
X124.587Y-81.661
X124.587Y-84.201
X124.587Y-86.741
X125.349Y-142.113
X125.349Y-144.653
X125.349Y-147.193
X139.065Y-93.599
X139.065Y-96.139
X139.065Y-98.679
X139.827Y-154.051
X139.827Y-156.591
X139.827Y-159.131
T6
X128.651Y-94.358
X129.413Y-154.81
X163.322Y-90.421
X164.084Y-150.873
T7
X95.377Y-73.406
X96.139Y-133.858
X100.457Y-73.406
X101.219Y-133.858
X108.077Y-73.66
X108.839Y-134.112
X113.157Y-73.66
X113.919Y-134.112
X119.634Y-73.533
X120.396Y-133.985
X124.714Y-73.533
X125.476Y-133.985
X131.318Y-73.406
X132.08Y-133.858
X136.398Y-73.406
X137.16Y-133.858
X143.637Y-73.787
X144.399Y-134.239
X148.717Y-73.787
X149.479Y-134.239
X181.229Y-74.549
X181.991Y-135.001
X186.309Y-74.549
X187.071Y-135.001
T0
M30
